<svg width="132" height="40" viewBox="0 0 132 40" fill="none" xmlns="http://www.w3.org/2000/svg">
<path d="M48.5723 8.5968H50.9192V10.3825H51.0978C51.5229 9.70224 52.0927 9.18353 52.807 8.82639C53.5382 8.46925 54.3461 8.29067 55.2304 8.29067C56.9311 8.29067 58.2406 8.86891 59.159 10.0254C60.0774 11.1648 60.5365 12.925 60.5365 15.306C60.5365 17.6529 60.0774 19.4131 59.159 20.5866C58.2406 21.743 56.9906 22.3213 55.409 22.3213C53.5553 22.3213 52.2032 21.709 51.3529 20.4845H51.1998V26.4284H48.5723V8.5968ZM54.4906 20.1019C55.6981 20.1019 56.557 19.7447 57.0672 19.0305C57.5774 18.3162 57.8325 17.1257 57.8325 15.459V15.2294C57.8325 13.5288 57.5774 12.3213 57.0672 11.607C56.557 10.8757 55.6981 10.5101 54.4906 10.5101C53.3512 10.5101 52.5178 10.9097 51.9906 11.709C51.4634 12.5084 51.1998 13.6818 51.1998 15.2294V15.4335C51.1998 16.9641 51.4634 18.1291 51.9906 18.9284C52.5178 19.7107 53.3512 20.1019 54.4906 20.1019Z" fill="#212121"/>
<path d="M68.8335 22.3213C66.6737 22.3213 65.0665 21.7516 64.0121 20.6121C62.9577 19.4726 62.4305 17.7039 62.4305 15.306C62.4305 12.908 62.9577 11.1393 64.0121 9.99986C65.0665 8.8604 66.6737 8.29067 68.8335 8.29067C70.7893 8.29067 72.2519 8.82639 73.2213 9.89782C74.1907 10.9522 74.6754 12.6359 74.6754 14.9488V15.9692H65.1346C65.2026 17.4148 65.5257 18.4862 66.1039 19.1835C66.6992 19.8638 67.6175 20.2039 68.859 20.2039C69.8284 20.2039 70.6107 19.9743 71.206 19.5152C71.8012 19.056 72.0988 18.3502 72.0988 17.3978H74.6754C74.6754 18.9964 74.1311 20.2209 73.0427 21.0713C71.9713 21.9046 70.5682 22.3213 68.8335 22.3213ZM71.9458 13.9794C71.9458 11.5985 70.9084 10.408 68.8335 10.408C67.6771 10.408 66.8097 10.6971 66.2315 11.2754C65.6533 11.8366 65.3046 12.738 65.1856 13.9794H71.9458Z" fill="#212121"/>
<path d="M83.0086 22.3213C80.8488 22.3213 79.2416 21.7516 78.1872 20.6121C77.1328 19.4726 76.6056 17.7039 76.6056 15.306C76.6056 12.908 77.1328 11.1393 78.1872 9.99986C79.2416 8.8604 80.8488 8.29067 83.0086 8.29067C84.9644 8.29067 86.427 8.82639 87.3964 9.89782C88.3658 10.9522 88.8505 12.6359 88.8505 14.9488V15.9692H79.3097C79.3777 17.4148 79.7008 18.4862 80.279 19.1835C80.8743 19.8638 81.7926 20.2039 83.0341 20.2039C84.0035 20.2039 84.7858 19.9743 85.3811 19.5152C85.9763 19.056 86.2739 18.3502 86.2739 17.3978H88.8505C88.8505 18.9964 88.3062 20.2209 87.2178 21.0713C86.1464 21.9046 84.7433 22.3213 83.0086 22.3213ZM86.1209 13.9794C86.1209 11.5985 85.0835 10.408 83.0086 10.408C81.8522 10.408 80.9848 10.6971 80.4066 11.2754C79.8284 11.8366 79.4797 12.738 79.3607 13.9794H86.1209Z" fill="#212121"/>
<path d="M91.546 8.5968H94.1735L93.9184 10.6631H94.0715C94.6837 9.08149 95.7126 8.29067 97.1582 8.29067C97.6344 8.29067 98.0511 8.3587 98.4082 8.49476V10.9948H97.4643C96.4609 10.9948 95.6616 11.2839 95.0664 11.8621C94.4711 12.4403 94.1735 13.3247 94.1735 14.5152V22.0152H91.546V8.5968Z" fill="#212121"/>
<path d="M100.465 3.57129H103.092V22.0152H100.465V3.57129Z" fill="#212121"/>
<path d="M106.568 3.57129H109.17V6.24986H106.568V3.57129ZM106.568 8.5968H109.196V22.0152H106.568V8.5968Z" fill="#212121"/>
<path d="M117.493 22.3213C115.656 22.3213 114.253 21.9386 113.284 21.1733C112.331 20.408 111.855 19.4471 111.855 18.2907C111.855 18.1036 111.855 17.9845 111.855 17.9335C111.872 17.8655 111.881 17.823 111.881 17.806H114.457V18.0356C114.457 18.7669 114.755 19.3196 115.35 19.6937C115.945 20.0509 116.702 20.2294 117.621 20.2294C118.437 20.2294 119.117 20.0764 119.661 19.7703C120.223 19.4641 120.503 19.0305 120.503 18.4692C120.503 18.0271 120.35 17.6699 120.044 17.3978C119.738 17.1087 119.364 16.8876 118.922 16.7345C118.479 16.5645 117.842 16.3689 117.008 16.1478C115.988 15.8927 115.155 15.6376 114.508 15.3825C113.862 15.1274 113.309 14.7448 112.85 14.2345C112.408 13.7243 112.187 13.0441 112.187 12.1937C112.187 10.9692 112.689 10.0169 113.692 9.33659C114.695 8.63931 116.03 8.29067 117.697 8.29067C118.735 8.29067 119.636 8.45224 120.401 8.77537C121.183 9.08149 121.779 9.51516 122.187 10.0764C122.612 10.6376 122.825 11.2669 122.825 11.9641L122.799 12.4743H120.223V12.2958C120.223 11.7346 119.993 11.2839 119.534 10.9437C119.092 10.5866 118.403 10.408 117.468 10.408C116.566 10.408 115.903 10.5696 115.478 10.8927C115.07 11.1988 114.865 11.5645 114.865 11.9897C114.865 12.5169 115.121 12.908 115.631 13.1631C116.141 13.4182 116.949 13.6733 118.054 13.9284C119.126 14.1835 120.002 14.4471 120.682 14.7192C121.362 14.9743 121.949 15.3825 122.442 15.9437C122.935 16.4879 123.182 17.2192 123.182 18.1376C123.182 19.5662 122.663 20.6206 121.626 21.3009C120.605 21.9811 119.228 22.3213 117.493 22.3213Z" fill="#212121"/>
<path d="M129.064 22.2958C128.044 22.2958 127.304 22.0067 126.845 21.4284C126.386 20.8332 126.156 20.1019 126.156 19.2345V10.7652H124.524V8.5968H126.182V4.8468H128.784V8.5968H131.054V10.7652H128.784V18.9794C128.784 19.7618 129.15 20.1529 129.881 20.1529H131.054V21.9386C130.833 22.0407 130.527 22.1257 130.136 22.1937C129.762 22.2618 129.405 22.2958 129.064 22.2958Z" fill="#212121"/>
<rect width="40" height="13.3087" transform="translate(91.4277 26.4287)" fill="#E1E4E8"/>
<path d="M97.1426 30H100.675C100.999 30 101.292 30.0659 101.556 30.1977C101.819 30.3236 102.026 30.5033 102.176 30.737C102.326 30.9647 102.401 31.2284 102.401 31.528C102.401 31.8695 102.305 32.1662 102.113 32.4178C101.927 32.6635 101.688 32.8343 101.394 32.9301V32.9661C101.742 33.032 102.023 33.2028 102.239 33.4784C102.461 33.7481 102.571 34.0686 102.571 34.4402C102.571 34.9974 102.392 35.4259 102.032 35.7255C101.679 36.0191 101.226 36.1659 100.675 36.1659H97.1426V30ZM100.306 32.4628C100.546 32.4628 100.732 32.4028 100.864 32.283C100.996 32.1572 101.061 31.9984 101.061 31.8066C101.061 31.5789 100.999 31.4052 100.873 31.2853C100.753 31.1655 100.585 31.1055 100.369 31.1055H98.4549V32.4628H100.306ZM100.459 35.0603C100.687 35.0603 100.873 34.9944 101.016 34.8626C101.16 34.7308 101.232 34.542 101.232 34.2963C101.232 34.0746 101.16 33.8949 101.016 33.7571C100.873 33.6192 100.663 33.5503 100.387 33.5503H98.4549V35.0603H100.459Z" fill="#444D56"/>
<path d="M105.427 30H110.271V31.1055H106.73V32.4628H109.876V33.5683H106.73V35.0603H110.325V36.1659H105.427V30Z" fill="#444D56"/>
<path d="M114.712 31.1235H112.806V30H117.92V31.1235H116.015V36.1659H114.712V31.1235Z" fill="#444D56"/>
<path d="M121.669 30H123.305L125.714 36.1659H124.294L123.853 34.9884H121.049L120.609 36.1659H119.26L121.669 30ZM123.44 33.9009L122.856 32.3369C122.784 32.1452 122.655 31.7407 122.469 31.1235H122.424C122.239 31.7407 122.11 32.1452 122.038 32.3369L121.454 33.9009H123.44Z" fill="#444D56"/>
<path d="M20 0C4.44444 0 0 4.44444 0 20C0 35.5556 4.45555 40 20 40C35.5444 40 40 35.5556 40 20C40 4.44444 35.5444 0 20 0Z" fill="#00AA45"/>
<path fill-rule="evenodd" clip-rule="evenodd" d="M5.17682 5.17682C2.5625 7.79114 1.42857 12.2521 1.42857 20C1.42857 27.7472 2.56506 32.2084 5.18076 34.8229C7.79662 37.4376 12.258 38.5714 20 38.5714C27.742 38.5714 32.2034 37.4376 34.8192 34.8229C37.4349 32.2084 38.5714 27.7472 38.5714 20C38.5714 12.2528 37.4349 7.79156 34.8192 5.17705C32.2034 2.56238 27.742 1.42857 20 1.42857C12.2521 1.42857 7.79114 2.5625 5.17682 5.17682ZM0 20C0 4.44444 4.44445 0 20 0C35.5444 0 40 4.44444 40 20C40 35.5556 35.5444 40 20 40C4.45555 40 0 35.5556 0 20Z" fill="#219653"/>
<path fill-rule="evenodd" clip-rule="evenodd" d="M19.3412 9.28564H10.7148V33.5714H17.4181V28.492H19.3412C24.8081 28.492 29.2863 24.2177 29.2863 18.8888C29.2863 13.56 24.8081 9.28564 19.3412 9.28564ZM17.4181 21.9841V15.7936H19.3412C21.1572 15.7936 22.583 17.2045 22.583 18.8888C22.583 20.5731 21.1572 21.9841 19.3412 21.9841H17.4181Z" fill="#24292E"/>
<path fill-rule="evenodd" clip-rule="evenodd" d="M12.8574 8.57129H20.7695C25.8675 8.57129 30.0003 12.551 30.0003 17.4602C30.0003 22.3694 25.8675 26.3491 20.7695 26.3491H18.1321V31.4284H12.8574V8.57129ZM18.1321 21.2697H20.7695C22.9544 21.2697 24.7256 19.5641 24.7256 17.4602C24.7256 15.3562 22.9544 13.6507 20.7695 13.6507H18.1321V21.2697Z" fill="white"/>
<path fill-rule="evenodd" clip-rule="evenodd" d="M12.1426 7.85693H20.769C26.2358 7.85693 30.714 12.1313 30.714 17.4601C30.714 22.789 26.2358 27.0633 20.769 27.0633H18.8459V32.1427H12.1426V7.85693ZM13.5711 9.28551V30.7141H17.4173V25.6347H20.769C25.4981 25.6347 29.2854 21.9497 29.2854 17.4601C29.2854 12.9706 25.4981 9.28551 20.769 9.28551H13.5711ZM17.4173 12.9363H20.769C23.3227 12.9363 25.4393 14.9365 25.4393 17.4601C25.4393 19.9837 23.3227 21.9839 20.769 21.9839H17.4173V12.9363ZM18.8459 14.3649V20.5553H20.769C22.585 20.5553 24.0107 19.1444 24.0107 17.4601C24.0107 15.7758 22.585 14.3649 20.769 14.3649H18.8459Z" fill="#24292E"/>
</svg>
